name rise32.9588peak41.5061fall63.4684.mot
datacolumns 19
datarows 35
range 21.08325700000000 21.13992100000000
endheader
time	ground_force1_vx	ground_force1_vy	ground_force1_vz	ground_force1_px	ground_force1_py	ground_force1_pz	ground_force2_vx	ground_force2_vy	ground_force2_vz	ground_force2_px	ground_force2_py	ground_force2_pz	ground_torque1_x	ground_torque1_y	ground_torque1_z	ground_torque2_x	ground_torque2_y	ground_torque2_z	
21.08325700000000	-43.97434000000000	785.74371099999996	48.21615300000000	0.05843900000000	0.00000000000000	0.10640900000000	-5.53556000000000	60.11891400000000	10.89258500000000	0.30424800000000	0.00000000000000	-0.07034300000000	0.00000000000000	14.33688600000000	0.00000000000000	0.00000000000000	6.42054700000000	0.00000000000000	
21.08493900000000	-44.19912900000000	783.38325499999996	47.99816800000000	0.05794600000000	0.00000000000000	0.10630000000000	-5.76818600000000	66.41223400000000	11.73698300000000	0.30763900000000	0.00000000000000	-0.07071300000000	0.00000000000000	14.27470400000000	0.00000000000000	0.00000000000000	6.99308200000000	0.00000000000000	
21.08658800000000	-44.43937200000000	780.94298300000003	47.76781300000000	0.05745600000000	0.00000000000000	0.10618600000000	-5.90695700000000	72.48793600000000	12.47751200000000	0.31070900000000	0.00000000000000	-0.07106900000000	0.00000000000000	14.21491800000000	0.00000000000000	0.00000000000000	7.51323900000000	0.00000000000000	
21.08825100000000	-44.69587400000000	778.42276400000003	47.52501100000000	0.05697000000000	0.00000000000000	0.10606900000000	-5.95193600000000	78.33078300000000	13.11209400000000	0.31349300000000	0.00000000000000	-0.07141500000000	0.00000000000000	14.15770300000000	0.00000000000000	0.00000000000000	7.97844600000000	0.00000000000000	
21.08992000000000	-44.96938800000000	775.82235600000001	47.26969500000000	0.05648600000000	0.00000000000000	0.10594900000000	-5.90654900000000	83.94880000000001	13.64385500000000	0.31601800000000	0.00000000000000	-0.07175100000000	0.00000000000000	14.10322300000000	0.00000000000000	0.00000000000000	8.38929900000000	0.00000000000000	
21.09158300000000	-45.26060700000000	773.14141199999995	47.00181100000000	0.05600400000000	0.00000000000000	0.10582400000000	-5.77680600000000	89.36909400000000	14.08004800000000	0.31830800000000	0.00000000000000	-0.07208100000000	0.00000000000000	14.05163200000000	0.00000000000000	0.00000000000000	8.74898900000000	0.00000000000000	
21.09325100000000	-45.57016100000000	770.37946299999999	46.72131300000000	0.05552200000000	0.00000000000000	0.10569700000000	-5.57045200000000	94.63282900000000	14.43082500000000	0.32038600000000	0.00000000000000	-0.07240400000000	0.00000000000000	14.00307400000000	0.00000000000000	0.00000000000000	9.06260400000000	0.00000000000000	
21.09492100000000	-45.89861300000000	767.53592400000002	46.42816900000000	0.05504100000000	0.00000000000000	0.10556500000000	-5.29612500000000	99.78992700000001	14.70797900000000	0.32226900000000	0.00000000000000	-0.07272300000000	0.00000000000000	13.95768000000000	0.00000000000000	0.00000000000000	9.33639900000000	0.00000000000000	
21.09658800000000	-46.24644900000000	764.61008500000003	46.12235800000000	0.05456000000000	0.00000000000000	0.10543100000000	-4.96258700000000	104.89395700000000	14.92377400000000	0.32397400000000	0.00000000000000	-0.07303800000000	0.00000000000000	13.91556800000000	0.00000000000000	0.00000000000000	9.57709700000000	0.00000000000000	
21.09825000000000	-46.61408100000000	761.60110899999995	45.80386600000000	0.05407700000000	0.00000000000000	0.10529300000000	-4.57808300000000	109.99760600000000	15.08994100000000	0.32551600000000	0.00000000000000	-0.07335100000000	0.00000000000000	13.87684500000000	0.00000000000000	0.00000000000000	9.79127500000000	0.00000000000000	
21.09991700000000	-47.00183400000000	758.50803199999996	45.47269400000000	0.05359200000000	0.00000000000000	0.10515100000000	-4.14984700000000	115.14897600000000	15.21687800000000	0.32690700000000	0.00000000000000	-0.07366100000000	0.00000000000000	13.84160200000000	0.00000000000000	0.00000000000000	9.98486400000000	0.00000000000000	
21.10161000000000	-47.40995100000000	755.32975899999997	45.12885100000000	0.05310500000000	0.00000000000000	0.10500700000000	-3.68378200000000	120.38885000000001	15.31309700000000	0.32815900000000	0.00000000000000	-0.07397000000000	0.00000000000000	13.80991600000000	0.00000000000000	0.00000000000000	10.16278900000000	0.00000000000000	
21.10325200000000	-47.83857800000000	752.06506899999999	44.77235900000000	0.05261400000000	0.00000000000000	0.10485900000000	-3.18428800000000	125.74897199999999	15.38490600000000	0.32928200000000	0.00000000000000	-0.07427700000000	0.00000000000000	13.78184900000000	0.00000000000000	0.00000000000000	10.32875300000000	0.00000000000000	
21.10492100000000	-48.28777000000000	748.71261200000004	44.40324800000000	0.05211900000000	0.00000000000000	0.10470900000000	-2.65424700000000	131.25127800000001	15.43631400000000	0.33028600000000	0.00000000000000	-0.07458400000000	0.00000000000000	13.75744800000000	0.00000000000000	0.00000000000000	10.48515000000000	0.00000000000000	
21.10661300000000	-48.75747900000000	745.27091299999995	44.02156100000000	0.05162000000000	0.00000000000000	0.10455500000000	-2.09511700000000	136.90797699999999	15.46912300000000	0.33118000000000	0.00000000000000	-0.07489000000000	0.00000000000000	13.73674200000000	0.00000000000000	0.00000000000000	10.63309600000000	0.00000000000000	
21.10825000000000	-49.24755600000000	741.73837700000001	43.62734900000000	0.05111600000000	0.00000000000000	0.10439800000000	-1.50712900000000	142.72231099999999	15.48316800000000	0.33197000000000	0.00000000000000	-0.07519600000000	0.00000000000000	13.71974300000000	0.00000000000000	0.00000000000000	10.77255200000000	0.00000000000000	
21.10992300000000	-49.75774400000000	738.11328700000001	43.22067600000000	0.05060600000000	0.00000000000000	0.10423900000000	-0.88953200000000	148.68980999999999	15.47665600000000	0.33266400000000	0.00000000000000	-0.07550200000000	0.00000000000000	13.70644600000000	0.00000000000000	0.00000000000000	10.90251300000000	0.00000000000000	
21.11158700000000	-50.28767700000000	734.39381600000002	42.80161500000000	0.05008900000000	0.00000000000000	0.10407700000000	-0.24087400000000	154.79987700000001	15.44657500000000	0.33326800000000	0.00000000000000	-0.07580800000000	0.00000000000000	13.69682800000000	0.00000000000000	0.00000000000000	11.02123800000000	0.00000000000000	
21.11326700000000	-50.83687600000000	730.57802600000002	42.37025200000000	0.04956500000000	0.00000000000000	0.10391300000000	0.44070700000000	161.03748999999999	15.38910500000000	0.33378800000000	0.00000000000000	-0.07611500000000	0.00000000000000	13.69084500000000	0.00000000000000	0.00000000000000	11.12649200000000	0.00000000000000	
21.11493500000000	-51.40474900000000	726.66388099999995	41.92668200000000	0.04903500000000	0.00000000000000	0.10374600000000	1.15722300000000	167.38490999999999	15.30002800000000	0.33423100000000	0.00000000000000	-0.07642100000000	0.00000000000000	13.68843800000000	0.00000000000000	0.00000000000000	11.21578400000000	0.00000000000000	
21.11659000000000	-51.99058400000000	722.64925000000005	41.47101200000000	0.04849600000000	0.00000000000000	0.10357700000000	1.91059900000000	173.82324299999999	15.17508600000000	0.33459900000000	0.00000000000000	-0.07672800000000	0.00000000000000	13.68952400000000	0.00000000000000	0.00000000000000	11.28658200000000	0.00000000000000	
21.11826400000000	-52.59355400000000	718.53191700000002	41.00335900000000	0.04794900000000	0.00000000000000	0.10340600000000	2.70248600000000	180.33377899999999	15.01028100000000	0.33489900000000	0.00000000000000	-0.07703500000000	0.00000000000000	13.69400300000000	0.00000000000000	0.00000000000000	11.33649300000000	0.00000000000000	
21.11992400000000	-53.21271100000000	714.30959199999995	40.52385400000000	0.04739300000000	0.00000000000000	0.10323200000000	3.53412400000000	186.89905500000000	14.80210700000000	0.33513500000000	0.00000000000000	-0.07734200000000	0.00000000000000	13.70175400000000	0.00000000000000	0.00000000000000	11.36340200000000	0.00000000000000	
21.12158500000000	-53.84698900000000	709.97991800000000	40.03263900000000	0.04682900000000	0.00000000000000	0.10305700000000	4.40625300000000	193.50361000000001	14.54770400000000	0.33530900000000	0.00000000000000	-0.07765000000000	0.00000000000000	13.71263500000000	0.00000000000000	0.00000000000000	11.36556800000000	0.00000000000000	
21.12325200000000	-54.49520100000000	705.54048399999999	39.52986700000000	0.04625500000000	0.00000000000000	0.10287900000000	5.31907200000000	200.13445200000001	14.24494400000000	0.33542700000000	0.00000000000000	-0.07795700000000	0.00000000000000	13.72648500000000	0.00000000000000	0.00000000000000	11.34167700000000	0.00000000000000	
21.12492300000000	-55.15604300000000	700.98883999999998	39.01570400000000	0.04567100000000	0.00000000000000	0.10270000000000	6.27224600000000	206.78124600000001	13.89245500000000	0.33549200000000	0.00000000000000	-0.07826500000000	0.00000000000000	13.74312200000000	0.00000000000000	0.00000000000000	11.29086100000000	0.00000000000000	
21.12658700000000	-55.82809100000000	696.32250699999997	38.49032900000000	0.04507800000000	0.00000000000000	0.10251900000000	7.26493200000000	213.43626599999999	13.48958800000000	0.33550600000000	0.00000000000000	-0.07857200000000	0.00000000000000	13.76234300000000	0.00000000000000	0.00000000000000	11.21267500000000	0.00000000000000	
21.12825600000000	-56.50980900000000	691.53899100000001	37.95393500000000	0.04447500000000	0.00000000000000	0.10233700000000	8.29584400000000	220.09418199999999	13.03635300000000	0.33547200000000	0.00000000000000	-0.07887900000000	0.00000000000000	13.78392700000000	0.00000000000000	0.00000000000000	11.10706700000000	0.00000000000000	
21.12991900000000	-57.19954200000000	686.63580200000001	37.40672700000000	0.04386200000000	0.00000000000000	0.10215300000000	9.36332400000000	226.75170199999999	12.53332100000000	0.33539400000000	0.00000000000000	-0.07918600000000	0.00000000000000	13.80763000000000	0.00000000000000	0.00000000000000	10.97431500000000	0.00000000000000	
21.13158900000000	-57.89553100000000	681.61046899999997	36.84892400000000	0.04323900000000	0.00000000000000	0.10196700000000	10.46542300000000	233.40715299999999	11.98151500000000	0.33527400000000	0.00000000000000	-0.07949100000000	0.00000000000000	13.83319300000000	0.00000000000000	0.00000000000000	10.81496900000000	0.00000000000000	
21.13325500000000	-58.59590500000000	676.46055699999999	36.28076000000000	0.04260600000000	0.00000000000000	0.10178100000000	11.59998000000000	240.06002599999999	11.38229800000000	0.33511400000000	0.00000000000000	-0.07979700000000	0.00000000000000	13.86033300000000	0.00000000000000	0.00000000000000	10.62977900000000	0.00000000000000	
21.13496100000000	-59.29869300000000	671.18368599999997	35.70248300000000	0.04196200000000	0.00000000000000	0.10159300000000	12.76470100000000	246.71054799999999	10.73727000000000	0.33491700000000	0.00000000000000	-0.08010100000000	0.00000000000000	13.88875200000000	0.00000000000000	0.00000000000000	10.41963400000000	0.00000000000000	
21.13658300000000	-60.00182500000000	665.77754900000002	35.11435800000000	0.04130900000000	0.00000000000000	0.10140400000000	13.95721900000000	253.35927799999999	10.04817200000000	0.33468400000000	0.00000000000000	-0.08040300000000	0.00000000000000	13.91813400000000	0.00000000000000	0.00000000000000	10.18550800000000	0.00000000000000	
21.13825800000000	-60.70313800000000	660.23993399999995	34.51666100000000	0.04064500000000	0.00000000000000	0.10121400000000	15.17514700000000	260.00679100000002	9.31681100000000	0.33441800000000	0.00000000000000	-0.08070500000000	0.00000000000000	13.94814500000000	0.00000000000000	0.00000000000000	9.92841400000000	0.00000000000000	
21.13992100000000	-61.40038300000000	654.56874300000004	33.90968800000000	0.03997100000000	0.00000000000000	0.10102400000000	16.41612200000000	266.65342900000002	8.54500100000000	0.33412000000000	0.00000000000000	-0.08100500000000	0.00000000000000	13.97843400000000	0.00000000000000	0.00000000000000	9.64936400000000	0.00000000000000	
